PathFileType	4	(X/Y/Z)	D:\TRACE\spot_10-12-23\spot_arm_motion_2_5-platform.trc
DataRate	CameraRate	NumFrames	NumMarkers	Units	OrigDataRate	OrigDataStartFrame	OrigNumFrames
100.00	100.00	      36	5	mm	100.00	4376	      7000
Frame#	Time	Left_Front			Right_Front			Left_Aft			Right_Aft			Post			
		X1	Y1	Z1	X2	Y2	Z2	X3	Y3	Z3	X4	Y4	Z4	X5	Y5	Z5	

4376	43.750	-730.58783	60.55747	-626.47064	841.98132	65.17077	-619.43042	-647.58130	-32.79899	507.69995	770.07526	-35.01495	593.69250	51.94446	822.14240	-882.48218	
4377	43.760	-730.95660	61.41482	-626.01910	841.49390	66.12543	-619.19843	-647.75928	-33.40688	507.81030	769.98077	-35.41228	593.86987	51.43496	823.09735	-881.26361	
4378	43.770	-731.37170	62.23481	-625.69489	841.15704	66.93003	-618.95398	-648.00031	-34.01246	507.98135	769.40631	-36.08847	594.01984	51.08671	824.18176	-880.45361	
4379	43.780	-731.66479	62.99606	-625.43817	840.91028	67.54002	-618.74109	-648.19678	-34.69427	508.38855	768.80322	-36.69312	594.06268	50.82520	825.35950	-879.63947	
4380	43.790	-731.92432	63.69271	-625.16882	840.58148	68.07301	-618.50446	-648.44733	-35.29522	508.56567	768.40796	-37.29561	594.14801	50.49267	826.38184	-878.45551	
4381	43.800	-732.22516	64.29635	-625.08386	840.26917	68.74347	-618.32513	-648.61591	-35.62459	508.74966	768.21942	-37.67809	594.30865	50.35131	827.09930	-877.30658	
4382	43.810	-732.51019	64.79383	-624.95856	840.17291	69.48597	-618.04565	-648.99200	-35.96158	508.85989	767.92859	-38.25417	594.37390	49.85238	827.87006	-876.43793	
4383	43.820	-732.74048	65.30836	-624.69635	839.86218	69.95401	-617.85443	-649.44104	-36.51444	508.87540	767.65308	-38.75249	594.45929	49.56681	828.64764	-875.67102	
4384	43.830	-733.19379	65.75293	-624.40814	839.48395	70.39172	-617.79395	-649.90747	-36.87074	508.94711	767.31079	-39.30125	594.64856	49.15844	829.42261	-874.88751	
4385	43.840	-733.90375	66.29190	-624.18555	838.78046	70.93659	-617.62360	-650.43146	-37.07636	509.10019	766.91022	-39.82264	594.75146	48.64565	830.08624	-874.13763	
4386	43.850	-734.17523	66.74973	-624.18439	838.15808	71.39287	-617.52875	-650.95160	-37.41631	508.95862	766.51172	-40.19490	594.87683	48.15020	830.61633	-873.47247	
4387	43.860	-734.72980	67.36433	-624.09833	837.73749	71.68854	-617.36639	-651.39746	-37.81601	509.30612	765.97308	-40.56079	594.92572	47.57890	831.31683	-872.81616	
4388	43.870	-735.17383	67.66831	-623.79773	837.32770	72.15553	-617.13196	-651.71332	-38.03503	509.31479	765.43488	-40.89542	594.90692	47.13380	832.01154	-872.14978	
4389	43.880	-735.74927	68.32803	-623.78955	836.89258	72.54308	-616.99146	-652.21277	-38.30791	509.35867	764.93860	-41.16868	594.93451	46.82698	832.65802	-871.64630	
4390	43.890	-736.15503	68.50623	-623.73596	836.41815	72.92566	-616.91040	-652.81500	-38.63396	509.36002	764.43182	-41.34774	594.96771	46.63035	833.06403	-871.19690	
4391	43.900	-736.71088	68.74542	-623.65973	836.00836	73.35394	-616.70667	-653.28564	-38.70355	509.27451	763.87701	-41.64798	595.07440	46.10082	833.56293	-870.57098	
4392	43.910	-737.18677	68.91048	-623.45490	835.44360	73.50813	-616.64587	-653.70349	-38.82774	509.30234	763.47339	-41.93481	595.14423	45.31124	833.97998	-870.01489	
4393	43.920	-737.69690	69.10918	-623.18085	834.77191	73.69184	-616.62848	-654.43604	-39.08902	509.33664	762.99835	-42.23553	595.16010	44.56129	834.11597	-869.72009	
4394	43.930	-738.39142	69.41553	-623.28680	834.17914	73.89884	-616.43195	-655.12799	-39.27815	509.33682	762.37268	-42.41943	595.08960	44.09938	834.27399	-869.34430	
4395	43.940	-738.93079	69.55121	-623.36005	833.63751	74.00446	-616.46600	-655.59204	-39.32758	509.43677	761.47852	-42.58015	595.07861	43.46755	834.44775	-869.10004	
4396	43.950	-739.58337	69.65915	-623.25391	833.16986	74.20506	-616.50079	-656.14996	-39.41599	509.42670	761.03400	-42.61488	595.08362	43.06722	834.55078	-869.01642	
4397	43.960	-740.39008	69.91290	-623.19250	832.59094	74.31591	-616.48779	-656.80884	-39.55761	509.36743	760.52545	-42.57744	595.14746	42.50134	834.67444	-868.94379	
4398	43.970	-740.91534	69.98058	-623.20685	831.57874	74.25047	-616.51294	-657.41956	-39.64137	509.43347	760.10095	-42.61662	595.22101	41.80077	834.78784	-868.87482	
4399	43.980	-741.41058	69.97921	-623.23993	831.03729	74.24544	-616.36212	-658.07013	-39.58926	509.45288	759.24475	-42.70916	595.15442	41.18853	834.81537	-868.84601	
4400	43.990	-742.18781	69.87989	-623.29828	830.59186	74.28671	-616.41089	-658.73187	-39.59199	509.38821	758.44696	-42.68255	595.13934	40.69489	834.77631	-868.92499	
4401	44.000	-742.81635	69.66457	-623.21808	830.11926	74.35810	-616.40930	-659.47705	-39.48987	509.23959	757.88312	-42.72372	595.26398	39.82534	834.88666	-869.19781	
4402	44.010	-743.81659	69.69905	-623.28650	829.07361	74.21104	-616.58405	-660.31372	-39.34470	509.23703	757.12488	-42.66532	595.25684	38.85955	834.82062	-869.40796	
4403	44.020	-744.17316	69.61358	-623.32196	828.08960	73.98862	-616.63672	-661.02197	-39.26215	509.34067	756.29187	-42.55487	595.17126	38.13646	834.52637	-869.47797	
4404	44.030	-745.04950	69.55543	-623.44031	827.40881	73.86565	-616.56708	-661.77643	-39.19499	509.30762	755.49207	-42.37503	595.05878	37.53216	834.21973	-869.64130	
4405	44.040	-745.71631	69.33641	-623.38733	826.92316	73.62835	-616.51361	-662.34515	-39.10453	509.32941	754.93878	-42.19141	595.19177	36.94643	833.97900	-869.90778	
4406	44.050	-746.69568	69.06822	-623.42346	826.05756	73.43140	-616.66003	-663.17432	-39.04796	509.39636	754.06079	-41.93877	595.18250	36.23738	833.75836	-870.20923	
4407	44.060	-747.43646	69.04382	-623.53290	825.09625	73.31996	-616.68549	-664.04730	-38.89494	509.25867	753.37567	-41.70815	595.11536	35.28495	833.36444	-870.46912	
4408	44.070	-748.24786	68.67477	-623.70105	824.35327	73.05153	-616.89453	-664.87396	-38.56498	509.13605	752.59241	-41.50241	595.02142	34.63295	832.99615	-870.72736	
4409	44.080	-748.95947	68.00906	-623.72583	823.57184	72.48382	-617.10089	-665.58752	-38.32077	509.10309	751.74359	-41.07841	595.00244	33.55154	832.47675	-871.26404	
4410	44.090	-749.88129	67.83703	-623.90643	822.82611	72.12967	-617.12909	-666.43134	-38.11598	509.11917	750.94318	-40.82085	595.07678	32.93194	831.92310	-871.67383	
4411	44.100	-750.68408	67.39484	-623.98236	821.80914	71.82383	-617.28821	-667.25458	-37.84473	509.08878	749.96912	-40.57521	595.00110	31.84222	831.39337	-872.33936	
